<svg width="24" height="25" viewBox="0 0 24 25" fill="none" xmlns="http://www.w3.org/2000/svg">
<rect y="0.5" width="24" height="24" rx="12" fill="#AFAFAF"/>
<g clip-path="url(#clip0_492_2997)">
<path d="M5 7.36753C5 6.91707 5.15766 6.54545 5.47297 6.25267C5.78828 5.95987 6.1982 5.81348 6.7027 5.81348C7.1982 5.81348 7.59909 5.95761 7.90541 6.24591C8.22072 6.54321 8.37838 6.93058 8.37838 7.40807C8.37838 7.8405 8.22523 8.20085 7.91892 8.48915C7.60361 8.78645 7.18919 8.9351 6.67568 8.9351H6.66216C6.16666 8.9351 5.76577 8.78645 5.45946 8.48915C5.15315 8.19185 5 7.81798 5 7.36753ZM5.17568 19.1919V10.1648H8.17568V19.1919H5.17568ZM9.83784 19.1919H12.8378V14.1513C12.8378 13.836 12.8739 13.5927 12.9459 13.4216C13.0721 13.1153 13.2635 12.8563 13.5203 12.6446C13.777 12.4328 14.0991 12.327 14.4865 12.327C15.4955 12.327 16 13.0072 16 14.3675V19.1919H19V14.0162C19 12.6828 18.6847 11.6716 18.0541 10.9824C17.4234 10.2932 16.5901 9.94861 15.5541 9.94861C14.3919 9.94861 13.4865 10.4486 12.8378 11.4486V11.4756H12.8243L12.8378 11.4486V10.1648H9.83784C9.85585 10.4531 9.86486 11.3495 9.86486 12.854C9.86486 14.3585 9.85585 16.4711 9.83784 19.1919Z" fill="white"/>
</g>
<defs>
<clipPath id="clip0_492_2997">
<rect x="5" y="5.5" width="14" height="14" fill="white"/>
</clipPath>
</defs>
</svg>
