<svg width="142" height="37" viewBox="0 0 142 37" fill="none" xmlns="http://www.w3.org/2000/svg">
<path d="M35.0576 0.268555C35.0708 1.25467 34.9895 2.25396 35.1212 3.22458C35.3195 4.68865 34.661 5.40055 33.3689 5.95442C30.9335 6.99786 30.9606 7.0637 31.3719 9.66649C32.5742 17.2665 29.6762 23.3002 24.1786 28.3454C24.0113 28.5003 23.8261 28.6336 23.6588 28.7877C23.6061 28.8357 23.5814 28.9179 23.4009 29.2525C23.8261 28.986 24.0818 28.8946 24.2383 28.7164C25.119 27.7094 26.126 27.7458 27.2346 28.2757C29.567 29.3919 31.9204 30.4664 34.2319 31.6245C34.5991 31.808 34.9965 32.3216 35.0267 32.7089C35.1266 33.9879 35.0646 35.28 35.0646 36.7665C34.283 36.4249 33.6315 36.1654 33.001 35.8617C23.2018 31.1395 13.4057 26.4109 3.61267 21.6757C2.92574 21.3495 2.27768 20.947 1.68072 20.4758C0.170947 19.2604 0.103558 17.729 1.5103 16.3811C2.01212 15.9196 2.58327 15.5398 3.20289 15.2555C12.4402 10.8556 21.6843 6.46723 30.935 2.09051C32.1682 1.50488 33.3813 0.876647 34.6037 0.268555H35.0576ZM6.71821 18.3657C6.88786 18.5532 6.94595 18.6678 7.03814 18.7112C12.8071 21.4508 18.5761 24.1879 24.3451 26.9224C24.9184 27.1951 25.2863 27.0409 25.5706 26.5351C28.5437 21.2799 29.5988 15.8644 26.9929 10.1243C26.6265 9.3148 26.1625 9.17847 25.3762 9.55184C19.1961 12.4932 13.006 15.4035 6.71821 18.3657Z" fill="#B82027"/>
<path d="M141.5 31.0296C140.629 31.121 139.764 31.262 139.317 30.1775C139.234 29.973 138.76 29.8498 138.456 29.8281C137.738 29.777 137.01 29.8576 136.293 29.7956C135.589 29.7344 135.118 29.8266 134.733 30.554C134.541 30.9173 133.813 30.9986 133.328 31.2078L133.15 30.8886C134.209 29.0248 135.241 27.1432 136.344 25.305C136.764 24.6078 137.831 24.7457 138.285 25.5111C139.138 26.941 139.951 28.3904 140.796 29.8227C141 30.1682 141.261 30.478 141.5 30.8042V31.0296ZM138.438 28.56L137.192 26.1587L135.916 28.56H138.438Z" fill="white"/>
<path d="M115.061 15.5771C116.121 18.4122 118.412 19.5649 120.91 20.6122C116.943 21.2482 112.792 18.1597 112.288 14.3376C112.21 13.7319 112.434 13.4987 113.025 13.5041C114.054 13.515 115.083 13.5243 116.111 13.4917C117.965 13.4336 118.811 12.3507 118.482 10.5659C118.301 9.58367 117.754 9.12043 116.761 9.11811C114.359 9.11114 111.958 9.12198 109.56 9.06156C108.635 9.0391 108.387 9.42177 108.398 10.2708C108.428 13.381 108.405 16.4911 108.411 19.6013C108.411 20.3148 108.306 20.8717 107.377 20.8624C106.595 20.8555 106.189 20.6378 106.196 19.7609C106.225 15.8544 106.218 11.9471 106.202 8.04059C106.198 7.25588 106.548 6.94834 107.305 6.96074C110.656 7.01496 114.01 6.99172 117.358 7.12806C119.456 7.21404 120.627 8.65022 120.758 10.9556C120.881 13.0905 119.693 14.694 117.692 15.0859C116.871 15.2424 116.053 15.3896 115.061 15.5771Z" fill="white"/>
<path d="M70.795 18.2C70.8461 17.4703 70.8964 17.0783 70.898 16.6856C70.905 13.8404 70.898 10.9951 70.9073 8.14984C70.9073 7.48674 70.922 6.81746 71.8942 6.83295C72.5797 6.84224 72.9787 7.07851 72.974 7.82139C72.967 11.8046 72.9911 15.7886 72.9314 19.771C72.9268 20.0994 72.4279 20.6138 72.0708 20.7068C71.0638 20.967 70.2481 20.5387 69.5571 19.7586C66.811 16.66 64.037 13.5832 61.2731 10.4993C61.0748 10.2793 60.871 10.064 60.4705 9.6294C60.407 10.2708 60.3389 10.6496 60.3373 11.0284C60.328 13.532 60.3373 16.0365 60.3288 18.5424C60.3288 18.9964 60.2885 19.4511 60.2513 19.9035C60.1878 20.6401 59.7207 20.8191 59.0553 20.7881C58.3713 20.7563 58.1311 20.4054 58.1327 19.7663C58.1412 15.8583 58.1482 11.951 58.128 8.04371C58.1242 7.31245 58.4944 7.02893 59.1351 6.93985C60.2196 6.78492 61.0538 7.22336 61.7518 8.01737C64.3856 11.0126 67.0237 14.0059 69.6663 16.997C69.9545 17.3208 70.262 17.6322 70.795 18.2Z" fill="white"/>
<path d="M104.407 20.4209C102.858 21.0406 102.152 20.8082 101.464 19.4743C99.868 16.3757 98.2947 13.257 96.7113 10.1476C96.544 9.81916 96.3674 9.49535 96.0862 8.96318C95.6563 9.72155 95.3115 10.2855 95.0079 10.8719C93.5152 13.7714 92.0441 16.6817 90.5429 19.5765C89.872 20.8702 89.3267 21.039 87.6906 20.4604C88.2034 19.4534 88.6977 18.4579 89.2159 17.4757C90.8685 14.3591 92.5246 11.2455 94.1844 8.13509C94.2379 8.03516 94.2789 7.91509 94.3603 7.84382C94.9025 7.36897 95.4851 6.49595 95.987 6.54087C96.6168 6.59665 97.3744 7.2915 97.7354 7.90889C98.9965 10.0686 100.111 12.3143 101.282 14.5259C102.311 16.4663 103.34 18.406 104.407 20.4209Z" fill="white"/>
<path d="M55.6407 20.4488C54.1882 21.0468 53.5491 20.8562 52.8977 19.6067C51.2903 16.5082 49.7015 13.4096 48.1003 10.3111C47.8974 9.91832 47.6634 9.54184 47.3257 8.94615C46.6053 10.3018 45.9786 11.4498 45.3798 12.6117C44.2008 14.9039 43.0558 17.2116 41.8606 19.4967C41.1975 20.7679 40.2772 21.0731 38.9634 20.4488C39.7381 18.9816 40.5127 17.516 41.2873 16.0519C42.7793 13.2384 44.2534 10.4164 45.7741 7.61841C46.6308 6.04047 47.9547 5.98469 48.7952 7.51925C51.0517 11.6434 53.2517 15.7986 55.4687 19.9445C55.5398 20.1076 55.5973 20.2762 55.6407 20.4488Z" fill="white"/>
<path d="M139.728 20.558C138.07 20.9453 137.457 20.6835 136.73 19.2675C135.118 16.1302 133.534 12.9789 131.935 9.83468C131.822 9.61235 131.68 9.40397 131.444 9.00735C131.149 9.48221 130.917 9.80369 130.738 10.1523C129.128 13.2896 127.53 16.4331 125.92 19.5704C125.267 20.8446 124.696 21.0368 123.169 20.4813C123.24 20.2489 123.275 19.9863 123.39 19.7687C125.539 15.715 127.671 11.652 129.867 7.6223C130.785 5.93746 131.992 5.94288 132.921 7.63547C135.13 11.6582 137.276 15.7142 139.441 19.7609C139.559 19.9817 139.617 20.2358 139.728 20.558Z" fill="white"/>
<path d="M82.7136 6.96075C84.6966 6.96075 86.6813 6.92124 88.6628 6.99096C89.0958 7.00568 89.7589 7.31398 89.8891 7.65095C90.1509 8.32799 89.8891 8.91671 88.9595 8.90277C87.7015 8.88418 86.4357 8.98643 85.1854 8.88418C83.9731 8.7858 83.695 9.28699 83.7175 10.3862C83.7748 13.2322 83.7384 16.0806 83.7338 18.9289C83.7338 19.269 83.8112 19.6703 83.6563 19.936C83.4696 20.2621 83.0722 20.6874 82.7833 20.675C82.4943 20.6626 82.0451 20.1738 82.0086 19.8562C81.8979 18.8422 81.9405 17.8104 81.9374 16.7855C81.932 14.584 81.9219 12.3817 81.9374 10.1794C81.9444 9.29629 81.65 8.85087 80.6685 8.89735C79.3361 8.9601 77.9991 8.89735 76.6636 8.91129C75.9951 8.91671 75.5667 8.72461 75.5574 7.95384C75.5481 7.18307 75.9881 6.9654 76.6419 6.96462C78.6699 6.95843 80.6918 6.96153 82.7136 6.96075Z" fill="white"/>
<path d="M62.4575 26.4794L56.6554 25.9201V29.8467H61.0035V28.5298C60.438 28.5298 59.8748 28.5748 59.3256 28.5074C59.1118 28.481 58.9298 28.2022 58.7338 28.0379C58.9298 27.8652 59.1211 27.5546 59.3233 27.5437C60.342 27.4926 61.3637 27.5205 62.3638 27.5205C62.4358 27.7397 62.4962 27.8427 62.5009 27.9481C62.6388 31.0939 62.638 31.0931 59.4666 31.073C58.4363 31.0668 57.4061 31.073 56.3758 31.066C55.5872 31.066 55.1766 30.6872 55.179 29.88C55.1836 28.6654 55.1797 27.4518 55.1674 26.2392C55.1596 25.3414 55.6058 24.9123 56.4966 24.913C58.0606 24.913 59.6262 24.8859 61.1886 24.9247C62.0756 24.9502 62.6372 25.3577 62.4575 26.4794Z" fill="white"/>
<path d="M40.4763 30.9731V24.8193C42.3633 24.9309 44.2194 24.9169 46.032 25.1888C47.3381 25.3848 48.1026 26.7505 48.0174 28.1425C47.9299 29.5655 47.0445 30.8391 45.7756 30.939C44.0435 31.0761 42.2921 30.9731 40.4763 30.9731ZM41.9675 25.9766V29.9854C43.1155 29.8948 44.2031 29.8692 45.2698 29.7073C46.2419 29.5593 46.4821 28.7708 46.4798 27.9256C46.4798 27.0518 46.125 26.3314 45.1807 26.2021C44.1465 26.0541 43.0969 26.0471 41.9675 25.9766Z" fill="white"/>
<path d="M119.426 24.8301C121.26 24.9262 123.042 24.8983 124.784 25.1477C126.272 25.3608 127.025 26.5979 126.934 28.1549C126.844 29.698 125.927 30.877 124.494 30.9746C122.838 31.0869 121.167 31.0009 119.426 31.0009V24.8301ZM120.937 26.1424V29.9854C122.066 29.9002 123.121 29.88 124.157 29.7259C125.193 29.5717 125.442 28.7521 125.414 27.8567C125.385 26.9325 124.989 26.2136 123.958 26.1525C122.982 26.0975 122.002 26.1424 120.937 26.1424Z" fill="white"/>
<path d="M100.271 26.9178V30.9607L99.1863 31.0939V24.6458C99.8525 25.0416 100.433 25.2353 100.791 25.6288C101.623 26.5468 102.348 27.56 103.1 28.5128C104.663 27.5058 104.9 25.1818 107.141 24.8162V30.9769H105.879V27.3361L105.639 27.2331L103.111 30.5245L100.271 26.9178Z" fill="white"/>
<path d="M111.803 25.9836V27.3516H114.452C114.829 28.2362 114.535 28.5236 113.705 28.481C113.105 28.4493 112.502 28.4748 111.829 28.4748V29.887H116.664V31.011H110.413V24.9177C112.335 24.9177 114.229 24.903 116.122 24.9409C116.314 24.9448 116.498 25.2732 116.685 25.4514C116.46 25.6303 116.239 25.9549 116.008 25.9634C114.643 26.0084 113.279 25.9836 111.803 25.9836Z" fill="white"/>
<path d="M84.1312 30.9273C83.1489 31.2217 82.4533 31.1721 82.0644 30.2224C81.9908 30.0435 81.7608 29.8118 81.5996 29.8064C80.464 29.7692 79.3253 29.7685 78.1912 29.8064C78.0192 29.8118 77.7667 30.0326 77.7032 30.2085C77.3887 31.0691 76.7791 31.2225 75.8208 30.9692C76.9278 29.0256 77.9658 27.0843 79.1587 25.243C79.3261 24.9843 80.5949 24.9874 80.7692 25.2515C81.9622 27.0658 83.0048 28.9838 84.1312 30.9273ZM78.6312 28.5159H81.1643C80.7305 27.7118 80.3695 27.0441 79.9055 26.1796C79.4454 27.0224 79.0828 27.687 78.6297 28.5136L78.6312 28.5159Z" fill="white"/>
<path d="M75.9207 26.0022H73.1591V31.0071L71.6935 31.0753V26.0533H68.8785C68.6841 25.329 68.7034 24.9131 69.5207 24.9231C71.4232 24.9456 73.3257 24.9518 75.2274 24.9231C76.0462 24.9061 76.0671 25.3174 75.9207 26.0022Z" fill="white"/>
<path d="M86.2676 24.9649H87.6457V29.8676H92.2285C92.2657 30.2898 92.2935 30.6035 92.3284 30.9994H86.2676V24.9649Z" fill="white"/>
<path d="M66.9558 31.0141H65.625V24.9719H66.9558V31.0141Z" fill="white"/>
<path d="M50.7271 24.9556H51.9611V31.0157L50.7271 31.0784V24.9556Z" fill="white"/>
<path d="M129.652 30.9971V24.9921L130.957 24.9262V30.9971H129.652Z" fill="white"/>
<path d="M137.192 26.1587L135.916 28.56L137.192 26.1587Z" fill="white"/>
<path d="M78.6297 28.5136C79.0828 27.6847 79.4454 27.0201 79.9055 26.1772L78.6297 28.5136Z" fill="white"/>
</svg>
